<svg xmlns="http://www.w3.org/2000/svg" width="700" height="320" fill="none" viewBox="0 0 700 320"><g clip-path="url(#a)"><rect width="700" height="320" fill="url(#b)" rx="16"/><path fill="#fff" d="M311.889 247.3c-28.792-.085-53.663-15.834-65.597-45.671-11.935-29.836-8.272-67.106 7.122-100.517 28.792.085 53.663 15.833 65.597 45.67 11.935 29.837 8.272 67.106-7.122 100.518"/><path fill="url(#c)" d="M311.889 247.3c-28.792-.085-53.663-15.834-65.597-45.671-11.935-29.836-8.272-67.106 7.122-100.517 28.792.085 53.663 15.833 65.597 45.67 11.935 29.837 8.272 67.106-7.122 100.518"/><path fill="#000" fill-opacity=".5" d="M311.889 247.3c-28.792-.085-53.663-15.834-65.597-45.671-11.935-29.836-8.272-67.106 7.122-100.517 28.792.085 53.663 15.833 65.597 45.67 11.935 29.837 8.272 67.106-7.122 100.518" style="mix-blend-mode:hard-light"/><path fill="url(#d)" fill-opacity=".5" d="M311.889 247.3c-28.792-.085-53.663-15.834-65.597-45.671-11.935-29.836-8.272-67.106 7.122-100.517 28.792.085 53.663 15.833 65.597 45.67 11.935 29.837 8.272 67.106-7.122 100.518" style="mix-blend-mode:hard-light"/><path stroke="url(#e)" stroke-opacity=".05" stroke-width=".531" d="M311.72 247.034c-28.612-.147-53.311-15.826-65.182-45.503-11.882-29.706-8.267-66.829 7.045-100.154 28.612.147 53.311 15.826 65.182 45.503 11.882 29.706 8.266 66.829-7.045 100.154Z"/><path fill="#fff" d="M305.839 247.174c38.081-9.755 71.315-36.555 87.746-75.534 16.432-38.979 12.395-81.441-7.238-115.447-38.081 9.755-71.315 36.556-87.746 75.535-16.432 38.978-12.395 81.44 7.238 115.446"/><path fill="url(#f)" d="M305.839 247.174c38.081-9.755 71.315-36.555 87.746-75.534 16.432-38.979 12.395-81.441-7.238-115.447-38.081 9.755-71.315 36.556-87.746 75.535-16.432 38.978-12.395 81.44 7.238 115.446"/><path stroke="url(#g)" stroke-opacity=".05" stroke-width=".531" d="M393.341 171.537c-16.37 38.832-49.451 65.554-87.372 75.33-19.507-33.908-23.493-76.204-7.124-115.036 16.37-38.833 49.45-65.554 87.372-75.33 19.507 33.907 23.493 76.203 7.124 115.036Z"/><path fill="#fff" d="M305.686 246.995c24.063 19.119 56.279 25.837 87.984 15.134 31.706-10.703 55.829-36.438 67.36-67.573-24.063-19.119-56.279-25.837-87.985-15.134s-55.828 36.438-67.359 67.573"/><path fill="url(#h)" d="M305.686 246.995c24.063 19.119 56.279 25.837 87.984 15.134 31.706-10.703 55.829-36.438 67.36-67.573-24.063-19.119-56.279-25.837-87.985-15.134s-55.828 36.438-67.359 67.573"/><path fill="#000" fill-opacity=".2" d="M305.686 246.995c24.063 19.119 56.279 25.837 87.984 15.134 31.706-10.703 55.829-36.438 67.36-67.573-24.063-19.119-56.279-25.837-87.985-15.134s-55.828 36.438-67.359 67.573" style="mix-blend-mode:hard-light"/><path fill="url(#i)" fill-opacity=".5" d="M305.686 246.995c24.063 19.119 56.279 25.837 87.984 15.134 31.706-10.703 55.829-36.438 67.36-67.573-24.063-19.119-56.279-25.837-87.985-15.134s-55.828 36.438-67.359 67.573" style="mix-blend-mode:hard-light"/><path stroke="url(#j)" stroke-opacity=".05" stroke-width=".531" d="M393.586 261.878c-31.552 10.651-63.606 4.002-87.584-14.971 11.532-30.988 35.568-56.58 67.128-67.234 31.551-10.65 63.605-4.002 87.584 14.971-11.533 30.988-35.569 56.58-67.128 67.234Z"/><g filter="url(#k)" opacity=".8"><circle cx="660" cy="-60" r="160" fill="#18E244" fill-opacity=".4"/></g><g filter="url(#l)" opacity=".8"><circle cx="20" cy="213" r="160" fill="#18CAE2" fill-opacity=".33"/></g><g filter="url(#m)" opacity=".8"><circle cx="660" cy="480" r="160" fill="#18E2B2" fill-opacity=".52"/></g><g filter="url(#n)" opacity=".8"><circle cx="20" cy="413" r="160" fill="#4018E2" fill-opacity=".22"/></g><path stroke="url(#o)" stroke-dasharray="4 4" d="M0 50h700" opacity=".2"/><path stroke="url(#p)" stroke-dasharray="4 4" d="M0 82h700" opacity=".1"/><path stroke="url(#q)" stroke-dasharray="4 4" d="M239 0v320" opacity=".2"/><path stroke="url(#r)" stroke-dasharray="4 4" d="M271 0v320" opacity=".1"/><path stroke="url(#s)" stroke-dasharray="4 4" d="M461 0v320" opacity=".2"/><path stroke="url(#t)" stroke-dasharray="4 4" d="M429 0v320" opacity=".1"/><path stroke="url(#u)" stroke-dasharray="4 4" d="M0 271h700" opacity=".2"/><path stroke="url(#v)" stroke-dasharray="4 4" d="M0 239h700" opacity=".1"/><path stroke="url(#w)" d="M0 160h700" opacity=".1" style="mix-blend-mode:overlay"/><path stroke="url(#x)" d="M511-1 189 321" opacity=".2" style="mix-blend-mode:overlay"/><path stroke="url(#y)" d="M511 321 189-1" opacity=".2" style="mix-blend-mode:overlay"/><circle cx="350" cy="160" r="111" stroke="#fff" opacity=".1" style="mix-blend-mode:overlay"/><circle cx="350" cy="160" r="79" stroke="#fff" opacity=".1" style="mix-blend-mode:overlay"/></g><defs><radialGradient id="c" cx="0" cy="0" r="1" gradientTransform="matrix(166.51315 -29.44767 29.16364 164.90708 208.697 189.703)" gradientUnits="userSpaceOnUse"><stop stop-color="#00B0BB"/><stop offset="1" stop-color="#00DB65"/></radialGradient><radialGradient id="f" cx="0" cy="0" r="1" gradientTransform="matrix(50.1109 -197.36993 217.01659 55.09906 313.405 243.64)" gradientUnits="userSpaceOnUse"><stop stop-color="#0BB"/><stop offset=".713" stop-color="#00DB65"/></radialGradient><radialGradient id="h" cx="0" cy="0" r="1" gradientTransform="matrix(163.86495 -60.78591 56.72369 152.91412 311.446 249.925)" gradientUnits="userSpaceOnUse"><stop stop-color="#00B0BB"/><stop offset="1" stop-color="#00DB65"/></radialGradient><radialGradient id="o" cx="0" cy="0" r="1" gradientTransform="matrix(398.125 0 0 182 350 50)" gradientUnits="userSpaceOnUse"><stop offset=".349" stop-color="#84FFD3"/><stop offset=".88" stop-color="#18E299" stop-opacity="0"/></radialGradient><radialGradient id="p" cx="0" cy="0" r="1" gradientTransform="matrix(398.125 0 0 182 350 82)" gradientUnits="userSpaceOnUse"><stop offset=".349" stop-color="#84FFD3"/><stop offset=".88" stop-color="#18E299" stop-opacity="0"/></radialGradient><radialGradient id="q" cx="0" cy="0" r="1" gradientTransform="matrix(0 182 -182 0 239 160)" gradientUnits="userSpaceOnUse"><stop offset=".349" stop-color="#84FFD3"/><stop offset=".88" stop-color="#18E299" stop-opacity="0"/></radialGradient><radialGradient id="r" cx="0" cy="0" r="1" gradientTransform="matrix(0 182 -182 0 271 160)" gradientUnits="userSpaceOnUse"><stop offset=".349" stop-color="#84FFD3"/><stop offset=".88" stop-color="#18E299" stop-opacity="0"/></radialGradient><radialGradient id="s" cx="0" cy="0" r="1" gradientTransform="matrix(0 182 -182 0 461 160)" gradientUnits="userSpaceOnUse"><stop offset=".349" stop-color="#84FFD3"/><stop offset=".88" stop-color="#18E299" stop-opacity="0"/></radialGradient><radialGradient id="t" cx="0" cy="0" r="1" gradientTransform="matrix(0 182 -182 0 429 160)" gradientUnits="userSpaceOnUse"><stop offset=".349" stop-color="#84FFD3"/><stop offset=".88" stop-color="#18E299" stop-opacity="0"/></radialGradient><radialGradient id="u" cx="0" cy="0" r="1" gradientTransform="matrix(398.125 0 0 182 350 271)" gradientUnits="userSpaceOnUse"><stop offset=".349" stop-color="#84FFD3"/><stop offset=".88" stop-color="#18E299" stop-opacity="0"/></radialGradient><radialGradient id="v" cx="0" cy="0" r="1" gradientTransform="matrix(398.125 0 0 182 350 239)" gradientUnits="userSpaceOnUse"><stop offset=".349" stop-color="#84FFD3"/><stop offset=".88" stop-color="#18E299" stop-opacity="0"/></radialGradient><linearGradient id="b" x1="0" x2="710.784" y1="320" y2="26.079" gradientUnits="userSpaceOnUse"><stop stop-color="#18E299" stop-opacity=".09"/><stop offset=".729" stop-color="#0D9373" stop-opacity=".08"/></linearGradient><linearGradient id="d" x1="306.587" x2="252.341" y1="93.56" y2="224.228" gradientUnits="userSpaceOnUse"><stop stop-color="#18E299"/><stop offset="1"/></linearGradient><linearGradient id="e" x1="311.84" x2="253.579" y1="123.717" y2="224.761" gradientUnits="userSpaceOnUse"><stop/><stop offset="1" stop-opacity="0"/></linearGradient><linearGradient id="g" x1="308.586" x2="383.487" y1="102.284" y2="201.169" gradientUnits="userSpaceOnUse"><stop/><stop offset="1" stop-opacity="0"/></linearGradient><linearGradient id="i" x1="395.842" x2="332.121" y1="169.781" y2="263.82" gradientUnits="userSpaceOnUse"><stop stop-color="#00B1BC"/><stop offset="1"/></linearGradient><linearGradient id="j" x1="395.842" x2="370.99" y1="169.781" y2="271.799" gradientUnits="userSpaceOnUse"><stop/><stop offset="1" stop-opacity="0"/></linearGradient><linearGradient id="w" x1="0" x2="700" y1="160" y2="160" gradientUnits="userSpaceOnUse"><stop stop-color="#fff" stop-opacity=".1"/><stop offset=".5" stop-color="#fff"/><stop offset="1" stop-color="#fff" stop-opacity=".1"/></linearGradient><linearGradient id="x" x1="511" x2="189" y1="-1" y2="321" gradientUnits="userSpaceOnUse"><stop stop-color="#fff" stop-opacity=".1"/><stop offset=".5" stop-color="#fff"/><stop offset="1" stop-color="#fff" stop-opacity=".1"/></linearGradient><linearGradient id="y" x1="511" x2="189" y1="321" y2="-1" gradientUnits="userSpaceOnUse"><stop stop-color="#fff" stop-opacity=".1"/><stop offset=".5" stop-color="#fff"/><stop offset="1" stop-color="#fff" stop-opacity=".1"/></linearGradient><filter id="k" width="800" height="800" x="260" y="-460" color-interpolation-filters="sRGB" filterUnits="userSpaceOnUse"><feFlood flood-opacity="0" result="BackgroundImageFix"/><feBlend in="SourceGraphic" in2="BackgroundImageFix" result="shape"/><feGaussianBlur result="effect1_foregroundBlur_2862_30" stdDeviation="120"/></filter><filter id="l" width="800" height="800" x="-380" y="-187" color-interpolation-filters="sRGB" filterUnits="userSpaceOnUse"><feFlood flood-opacity="0" result="BackgroundImageFix"/><feBlend in="SourceGraphic" in2="BackgroundImageFix" result="shape"/><feGaussianBlur result="effect1_foregroundBlur_2862_30" stdDeviation="120"/></filter><filter id="m" width="800" height="800" x="260" y="80" color-interpolation-filters="sRGB" filterUnits="userSpaceOnUse"><feFlood flood-opacity="0" result="BackgroundImageFix"/><feBlend in="SourceGraphic" in2="BackgroundImageFix" result="shape"/><feGaussianBlur result="effect1_foregroundBlur_2862_30" stdDeviation="120"/></filter><filter id="n" width="800" height="800" x="-380" y="13" color-interpolation-filters="sRGB" filterUnits="userSpaceOnUse"><feFlood flood-opacity="0" result="BackgroundImageFix"/><feBlend in="SourceGraphic" in2="BackgroundImageFix" result="shape"/><feGaussianBlur result="effect1_foregroundBlur_2862_30" stdDeviation="120"/></filter><clipPath id="a"><rect width="700" height="320" fill="#fff" rx="16"/></clipPath></defs></svg>